<svg width="20" height="20" viewBox="0 0 20 20" fill="none" xmlns="http://www.w3.org/2000/svg">
<path d="M15.0006 1.98566C13.1709 1.61487 11.3363 2.25466 9.99988 3.93117C8.6635 2.25466 6.8289 1.61487 4.99916 1.98566C4.03658 2.18073 2.67091 2.93872 1.76895 4.26879C0.830506 5.65266 0.431164 7.59902 1.36425 10.0402C2.09228 11.945 3.65313 13.7193 5.22892 15.1246C6.81699 16.5409 8.50878 17.6602 9.61371 18.238L9.99988 18.4399L10.3861 18.238C11.491 17.6602 13.1828 16.5409 14.7708 15.1246C16.3466 13.7193 17.9075 11.945 18.6355 10.0402C19.5686 7.59902 19.1693 5.65266 18.2308 4.26879C17.3289 2.93872 15.9632 2.18073 15.0006 1.98566ZM7.08331 5.83317C7.54355 5.83317 7.91665 6.20627 7.91665 6.6665V7.49984C7.91665 7.96007 7.54355 8.33317 7.08331 8.33317C6.62308 8.33317 6.24998 7.96007 6.24998 7.49984V6.6665C6.24998 6.20627 6.62308 5.83317 7.08331 5.83317ZM12.9166 5.83317C13.3769 5.83317 13.75 6.20627 13.75 6.6665V7.49984C13.75 7.96007 13.3769 8.33317 12.9166 8.33317C12.4564 8.33317 12.0833 7.96007 12.0833 7.49984V6.6665C12.0833 6.20627 12.4564 5.83317 12.9166 5.83317ZM6.26512 10.6624C6.30038 10.4275 6.49035 10.2679 6.72281 10.2192C7.16803 10.126 8.11581 9.99984 9.98526 9.99984C11.889 9.99984 12.8446 10.1307 13.2849 10.2243C13.5055 10.2713 13.6897 10.4187 13.73 10.6407C13.7839 10.9376 13.756 11.4192 13.2988 12.0015C12.5241 12.9883 11.3306 13.3332 10.0862 13.3332C8.84184 13.3332 7.36791 12.9883 6.66098 12.0015C6.25381 11.4332 6.22032 10.9608 6.26512 10.6624Z" fill="black"/>
</svg>
