<svg width="10" height="10" viewBox="0 0 10 10" fill="none" xmlns="http://www.w3.org/2000/svg">
<g clip-path="url(#clip0_101_2762)">
<path fill-rule="evenodd" clip-rule="evenodd" d="M8.9574 1.26593C9.10541 1.35933 9.17942 1.40603 9.21777 1.47051C9.25151 1.52723 9.26643 1.59317 9.26038 1.65889C9.25351 1.7336 9.20681 1.8076 9.11341 1.95561L4.80718 8.77955C4.68301 8.97631 4.47241 9.102 4.24029 9.11788C4.00818 9.13376 3.78242 9.03792 3.63261 8.8599L1.01889 5.7539C0.906201 5.61999 0.849857 5.55304 0.832877 5.47996C0.817941 5.41568 0.823738 5.34832 0.849438 5.28753C0.878655 5.21843 0.945611 5.16209 1.07952 5.0494L1.43021 4.75429C1.56412 4.64161 1.63108 4.58526 1.70415 4.56828C1.76844 4.55335 1.8358 4.55914 1.89658 4.58484C1.96568 4.61406 2.02202 4.68102 2.13471 4.81493L4.1062 7.15773L7.88011 1.17734C7.97351 1.02933 8.02021 0.955327 8.08469 0.916972C8.14141 0.883234 8.20735 0.868317 8.27307 0.87436C8.34778 0.88123 8.42178 0.927931 8.56979 1.02133L8.9574 1.26593Z" fill="black" fill-opacity="0.65"/>
</g>
<defs>
<clipPath id="clip0_101_2762">
<rect width="10" height="10" fill="white"/>
</clipPath>
</defs>
</svg>
